<?xml version="1.0" standalone="no"?>
<!DOCTYPE svg PUBLIC "-//W3C//DTD SVG 20010904//EN"
 "http://www.w3.org/TR/2001/REC-SVG-20010904/DTD/svg10.dtd">
<svg version="1.0" xmlns="http://www.w3.org/2000/svg"
 width="1080.000000pt" height="220.000000pt" viewBox="0 0 1080.000000 220.000000"
 preserveAspectRatio="xMidYMid meet">
<metadata>
Created by potrace 1.16, written by Peter Selinger 2001-2019
</metadata>
<g transform="translate(0.000000,220.000000) scale(0.100000,-0.100000)"
fill="#242f6d" stroke="none">
<path d="M895 2191 c-140 -18 -304 -81 -437 -166 -86 -56 -217 -184 -277 -274
-52 -76 -116 -211 -137 -290 -9 -31 -21 -74 -27 -96 -14 -52 -14 -338 0 -390
6 -22 19 -67 28 -99 24 -90 107 -252 170 -334 l56 -73 -29 -72 c-16 -40 -55
-134 -86 -209 -32 -76 -56 -148 -54 -160 l3 -23 41 -3 41 -3 47 108 c57 131
81 186 100 236 8 20 20 37 25 37 6 0 39 -21 73 -46 164 -120 392 -194 602
-194 208 0 458 83 606 200 21 17 42 30 47 30 5 0 36 -64 68 -142 32 -79 68
-161 80 -183 l20 -40 40 0 40 0 3 27 c3 25 -19 83 -118 318 -44 104 -45 109
-17 138 38 42 112 152 142 212 166 331 153 696 -37 1014 -60 101 -239 277
-343 337 -162 94 -312 138 -490 144 -66 2 -147 0 -180 -4z m45 -111 c0 -5 -9
-29 -20 -52 -11 -24 -87 -207 -170 -408 -83 -201 -155 -374 -160 -385 -10 -23
-39 -94 -109 -260 -130 -313 -151 -365 -151 -375 0 -33 -44 15 -100 110 -112
190 -151 440 -102 655 21 91 59 195 89 244 111 179 205 274 373 372 54 32 167
73 244 90 99 21 106 21 106 9z m281 -9 c168 -35 307 -107 434 -224 198 -182
295 -403 295 -672 0 -180 -37 -317 -131 -480 -39 -70 -84 -124 -93 -114 -2 2
-43 98 -90 214 -48 116 -95 230 -106 255 -10 25 -30 72 -44 105 -14 33 -39 94
-56 135 -18 41 -36 86 -42 100 -5 14 -72 174 -148 355 -76 182 -136 333 -133
338 6 10 9 10 114 -12z m-141 -218 c142 -341 163 -392 186 -448 14 -33 29 -69
34 -80 5 -11 23 -54 40 -95 17 -41 40 -95 50 -120 11 -25 53 -128 95 -230 82
-201 100 -244 140 -335 l26 -60 -28 -23 c-94 -77 -169 -120 -285 -162 -293
-104 -626 -49 -880 146 -32 25 -58 47 -58 48 0 4 63 160 141 346 28 69 62 151
75 183 45 109 156 373 249 597 31 74 77 186 102 248 25 61 49 112 53 112 4 0
31 -57 60 -127z"/>
<path d="M6628 2118 c-8 -20 -10 -1772 -2 -1791 3 -9 12 -17 20 -17 l14 0 -2
907 c-2 661 -6 907 -14 910 -6 2 -14 -2 -16 -9z"/>
<path d="M7085 1918 c-3 -24 -5 -81 -3 -127 l3 -84 25 -19 c34 -25 140 -33
204 -16 72 19 83 40 91 176 l7 112 -50 0 -49 0 -7 -52 c-3 -29 -6 -72 -6 -96
0 -32 -6 -49 -25 -67 -28 -29 -42 -31 -73 -9 l-23 16 1 91 c1 51 1 98 1 105
-1 8 -17 12 -45 12 l-45 0 -6 -42z"/>
<path d="M7456 1888 c-3 -40 -7 -107 -8 -148 l-3 -75 24 -3 c12 -2 34 -1 47 2
l23 6 3 88 3 87 49 -80 c27 -44 56 -86 65 -92 8 -7 37 -13 63 -13 30 0 50 5
53 13 2 6 6 74 10 150 l6 137 -45 0 -46 0 0 -84 c0 -47 -4 -87 -9 -90 -4 -3
-32 35 -61 84 l-52 90 -58 0 -58 0 -6 -72z"/>
<path d="M7856 1888 c-3 -40 -7 -107 -8 -148 l-3 -75 50 3 c27 2 50 4 51 5 1
1 3 65 5 142 l4 140 -47 3 -46 3 -6 -73z"/>
<path d="M8010 1950 c0 -6 15 -50 34 -98 18 -48 41 -109 51 -135 10 -26 21
-50 25 -52 3 -2 31 -1 61 2 l54 5 73 134 c39 74 72 138 72 144 0 5 -20 10 -44
10 l-44 0 -52 -100 c-28 -55 -54 -100 -59 -100 -4 0 -23 45 -41 100 l-34 100
-48 0 c-26 0 -48 -5 -48 -10z"/>
<path d="M8427 1870 c-4 -49 -10 -114 -13 -145 l-7 -55 131 0 130 0 6 16 c15
40 9 44 -74 44 l-80 0 0 25 0 24 68 3 67 3 0 30 0 30 -62 3 -63 3 0 19 0 20
74 0 74 0 5 27 c3 16 3 31 0 35 -2 5 -59 8 -127 8 l-123 0 -6 -90z"/>
<path d="M8746 1894 c-3 -38 -7 -105 -8 -149 l-3 -80 45 0 45 0 3 100 c2 55 5
106 7 113 3 9 19 12 47 10 l43 -3 0 -24 c0 -18 -8 -27 -30 -34 -16 -5 -32 -11
-34 -13 -2 -2 8 -37 24 -79 l27 -75 49 0 c57 0 59 6 24 73 l-26 48 36 33 c42
40 45 73 11 113 l-24 28 -115 3 -115 4 -6 -68z"/>
<path d="M9130 1947 c-13 -7 -31 -24 -39 -38 l-15 -26 13 -29 c7 -16 32 -45
57 -64 61 -48 55 -66 -23 -63 l-60 3 6 -33 7 -32 54 -7 c74 -9 151 16 164 53
15 43 0 75 -54 114 -27 20 -50 43 -50 50 0 19 27 26 67 19 l34 -6 -3 33 -3 34
-65 3 c-38 1 -75 -3 -90 -11z"/>
<path d="M9373 1818 c-5 -79 -7 -146 -4 -150 3 -3 27 -4 54 -1 l47 6 0 91 c0
50 3 115 6 144 l7 52 -50 0 -50 0 -10 -142z"/>
<path d="M9547 1953 c-2 -4 -6 -71 -8 -148 l-4 -140 117 0 117 0 28 21 c40 29
63 80 63 142 l0 52 -34 38 -34 37 -120 3 c-66 2 -122 0 -125 -5z m199 -88 c21
-33 13 -93 -17 -117 -12 -10 -38 -18 -60 -18 l-39 0 0 58 c0 31 3 67 6 80 l6
22 44 0 44 0 16 -25z"/>
<path d="M10008 1949 c-10 -5 -18 -14 -18 -18 0 -5 -33 -65 -74 -134 -41 -69
-72 -128 -68 -131 3 -3 26 -6 51 -6 l46 0 20 38 20 37 61 3 61 3 17 -41 16
-40 50 0 c27 0 50 2 50 5 0 3 -22 59 -50 125 -27 66 -50 124 -50 129 0 35 -89
55 -132 30z m67 -99 c20 -39 20 -40 -21 -40 -20 0 -34 3 -32 8 20 41 32 62 34
62 2 0 10 -13 19 -30z"/>
<path d="M10280 1893 c0 -38 -3 -106 -7 -152 l-6 -83 119 4 c137 4 161 14 194
82 37 78 20 158 -43 196 l-32 20 -112 0 -113 0 0 -67z m194 -19 c28 -27 16
-113 -18 -136 -6 -4 -28 -8 -48 -8 l-38 0 0 80 0 80 44 0 c27 0 51 -6 60 -16z"/>
<path d="M2290 1870 c-73 -18 -116 -103 -86 -173 17 -43 60 -71 130 -88 92
-21 123 -59 74 -93 -30 -21 -73 -20 -143 4 -32 11 -60 20 -62 20 -1 0 -3 -20
-3 -45 l0 -44 38 -11 c20 -6 67 -14 105 -17 125 -10 197 39 197 135 0 84 -21
102 -175 149 -63 19 -79 39 -54 70 l13 15 71 -5 c38 -3 80 -9 93 -12 l22 -7 0
45 0 45 -22 5 c-47 12 -164 16 -198 7z"/>
<path d="M2780 1871 c-102 -22 -160 -104 -160 -227 0 -105 41 -172 125 -203
173 -65 324 31 325 207 0 95 -40 170 -111 207 -32 17 -133 26 -179 16z m128
-96 c13 -10 28 -39 38 -72 l16 -57 -16 -53 c-18 -55 -58 -93 -99 -93 -31 0
-76 29 -92 60 -32 62 -13 193 32 219 27 16 96 13 121 -4z"/>
<path d="M3160 1650 l0 -220 55 0 54 0 3 73 3 72 30 3 c17 1 55 5 85 8 l55 6
38 39 37 40 0 54 0 53 -27 33 c-42 49 -77 59 -213 59 l-120 0 0 -220z m225
120 c18 -15 20 -71 3 -88 -7 -7 -36 -12 -65 -12 l-53 0 0 53 c0 30 3 57 8 61
10 11 89 1 107 -14z"/>
<path d="M3600 1650 l0 -220 60 0 60 0 0 95 0 95 80 0 80 0 0 -95 0 -95 60 0
60 0 0 220 0 220 -60 0 -60 0 0 -85 0 -85 -80 0 -80 0 0 85 0 85 -60 0 -60 0
0 -220z"/>
<path d="M4110 1650 l0 -221 58 3 57 3 0 215 0 215 -57 3 -58 3 0 -221z"/>
<path d="M4408 1767 c-20 -56 -55 -151 -77 -210 -23 -60 -41 -113 -41 -118 0
-5 24 -9 54 -9 l54 0 16 40 16 40 86 0 86 0 15 -40 16 -40 54 0 c29 0 53 4 53
10 0 5 -11 40 -25 77 -14 37 -46 123 -70 190 -24 67 -49 131 -55 143 l-11 20
-67 0 -67 0 -37 -103z m140 -93 c12 -34 22 -66 22 -73 0 -7 -21 -11 -56 -11
l-56 0 6 25 c14 57 49 136 55 128 4 -4 17 -35 29 -69z"/>
<path d="M7077 1523 c-4 -3 -7 -70 -7 -147 -1 -130 -10 -285 -28 -478 l-8 -78
318 0 318 0 0 53 c0 28 3 62 6 75 l6 22 -196 0 -196 0 1 23 c0 12 3 40 7 62
l7 40 160 5 160 5 3 78 3 79 -158 -3 -158 -3 -3 54 c-2 36 1 56 10 62 7 4 90
8 183 8 94 -1 176 -1 183 0 8 0 12 22 12 75 l0 75 -308 0 c-170 0 -312 -3
-315 -7z"/>
<path d="M8126 1514 c-9 -9 -28 -39 -43 -68 -24 -49 -138 -248 -284 -498 -38
-64 -69 -121 -69 -125 0 -4 58 -10 128 -11 l128 -4 49 99 50 98 145 0 145 0
35 -97 35 -98 122 0 c91 0 123 3 123 12 0 7 -42 118 -94 248 -123 305 -166
417 -166 429 0 22 -40 29 -161 30 l-127 2 -16 -17z m167 -239 c14 -38 28 -78
32 -87 l7 -18 -86 0 -86 0 47 93 c27 52 51 91 54 88 4 -3 18 -37 32 -76z"/>
<path d="M8815 1518 c-2 -7 -9 -123 -15 -258 -6 -135 -15 -288 -20 -340 -5
-52 -7 -96 -5 -98 2 -2 58 -6 124 -9 l120 -4 3 138 3 138 150 5 150 5 0 75 0
75 -142 3 -143 3 0 42 c0 70 -2 69 183 67 l166 -1 6 23 c3 13 5 51 3 83 l-3
60 -288 3 c-225 2 -288 0 -292 -10z"/>
<path d="M9497 1524 c-4 -4 -7 -50 -7 -103 0 -105 -16 -452 -25 -543 l-6 -58
124 0 125 0 6 188 c5 151 18 379 29 497 l2 20 -121 3 c-66 1 -123 -1 -127 -4z"/>
<path d="M9846 1522 c-4 -7 -9 -113 -7 -151 l1 -14 114 7 c63 4 116 4 118 -1
4 -6 -9 -268 -24 -496 l-3 -48 123 -5 122 -5 0 33 c0 24 19 364 30 526 0 1 54
2 120 2 l120 0 0 80 0 80 -354 0 c-195 0 -357 -4 -360 -8z"/>
<path d="M4297 1133 c-4 -3 -7 -102 -7 -220 l0 -213 25 0 25 0 0 95 c0 61 5
108 15 130 20 50 80 70 121 41 l19 -14 5 -124 5 -123 25 0 25 0 3 95 c4 119
-2 152 -34 190 l-26 30 -48 0 c-32 0 -55 -6 -73 -20 -14 -11 -28 -20 -31 -20
-3 0 -6 36 -6 80 l0 80 -18 0 c-10 0 -22 -3 -25 -7z"/>
<path d="M2204 1007 c-2 -7 -3 -78 -2 -157 l3 -145 25 0 25 0 3 105 c1 58 7
115 13 127 14 26 58 46 90 41 18 -2 25 2 27 20 l3 22 -39 0 c-24 0 -49 -8 -65
-20 l-26 -20 -6 20 c-7 22 -43 27 -51 7z"/>
<path d="M2430 994 c-44 -37 -60 -75 -60 -140 0 -106 58 -160 171 -158 75 1
109 16 109 46 l0 20 -22 -7 c-13 -4 -48 -10 -79 -12 l-57 -5 -31 29 c-17 15
-32 39 -33 53 l-3 25 115 2 c74 1 116 5 118 12 10 29 -21 112 -50 136 l-30 25
-58 0 -58 0 -32 -26z m144 -35 c15 -12 26 -30 26 -45 l0 -24 -85 0 -85 0 0 16
c0 64 89 97 144 53z"/>
<path d="M2756 999 l-26 -20 0 -44 c0 -55 23 -79 94 -96 81 -18 105 -49 67
-83 -15 -14 -32 -17 -73 -13 -29 2 -63 8 -75 12 l-23 7 0 -20 c0 -28 18 -39
75 -46 95 -12 165 28 165 94 0 47 -29 75 -94 90 -27 6 -57 15 -67 21 -25 13
-24 55 0 69 25 13 82 13 116 0 l26 -10 6 17 c11 27 -25 43 -98 43 -52 0 -72
-4 -93 -21z"/>
<path d="M3092 1000 c-95 -58 -92 -222 5 -286 33 -21 145 -25 181 -6 27 15 32
58 5 47 -10 -5 -46 -10 -80 -13 l-62 -4 -31 31 c-21 20 -30 39 -28 53 3 25 -2
24 142 27 l89 1 -5 52 -5 52 -37 33 -36 33 -52 0 c-36 0 -64 -7 -86 -20z m143
-45 c14 -13 25 -33 25 -45 l0 -20 -90 0 -90 0 0 16 c0 8 13 29 29 45 38 38 91
40 126 4z"/>
<path d="M3423 1010 c-14 -6 -23 -18 -23 -31 0 -15 4 -19 16 -15 31 12 93 18
118 12 32 -8 56 -32 56 -57 l0 -19 -55 0 c-76 0 -131 -24 -144 -62 -15 -42
-14 -64 4 -98 27 -53 122 -63 171 -18 l21 19 6 -20 c3 -13 13 -21 26 -21 l21
0 0 120 c0 130 -8 158 -50 183 -31 19 -129 22 -167 7z m167 -179 c0 -17 -11
-42 -26 -60 l-26 -31 -39 0 c-46 0 -74 32 -64 73 8 31 41 45 108 46 l47 1 0
-29z"/>
<path d="M3754 1007 c-2 -7 -3 -78 -2 -157 l3 -145 23 -3 22 -3 0 83 c1 149
21 193 90 193 38 0 57 15 44 36 -10 18 -77 10 -100 -12 l-22 -21 -11 21 c-13
23 -39 28 -47 8z"/>
<path d="M4022 999 c-45 -29 -62 -67 -62 -139 0 -69 17 -109 58 -138 57 -42
174 -38 180 6 l3 21 -50 -6 c-27 -3 -61 -3 -75 1 -57 14 -86 124 -49 187 24
41 64 55 124 42 l49 -10 0 23 c0 27 -17 34 -88 34 -41 0 -66 -6 -90 -21z"/>
<path d="M4878 1000 c-36 -27 -58 -80 -58 -134 0 -61 19 -105 61 -140 l33 -28
44 5 c26 3 53 14 68 28 l24 22 0 -27 c0 -40 -27 -85 -56 -92 -14 -4 -50 -4
-80 -1 l-54 6 0 -19 c0 -27 15 -33 91 -33 131 0 149 32 149 268 l0 165 -25 0
c-19 0 -25 -5 -25 -21 l0 -20 -26 20 c-36 28 -112 29 -146 1z m137 -43 c54
-46 42 -176 -18 -202 -41 -17 -78 -5 -104 35 -27 38 -29 83 -8 133 25 61 82
75 130 34z"/>
<path d="M5205 998 c-3 -13 -4 -84 -3 -158 l3 -135 25 0 25 0 5 112 5 112 23
23 c15 16 34 23 62 23 l40 0 0 22 0 23 -39 0 c-23 0 -48 -8 -64 -20 l-25 -20
-5 20 c-7 28 -45 26 -52 -2z"/>
<path d="M5474 1001 c-40 -24 -59 -72 -59 -146 1 -107 47 -159 138 -159 66 0
108 27 131 84 32 80 15 164 -43 213 l-33 27 -51 0 c-33 0 -63 -7 -83 -19z
m129 -42 c54 -41 57 -143 7 -197 -29 -31 -83 -30 -115 3 l-25 24 0 65 0 64 26
31 c31 37 69 41 107 10z"/>
<path d="M5787 1014 c-12 -12 -7 -216 6 -254 23 -67 120 -88 175 -37 l22 20 0
-21 c0 -17 6 -22 25 -22 l25 0 0 161 0 160 -22 -3 -23 -3 -5 -118 -5 -119 -24
-19 c-31 -25 -83 -25 -107 2 l-18 20 -6 117 -5 117 -15 3 c-9 1 -19 0 -23 -4z"/>
<path d="M6154 1007 c-2 -7 -3 -105 -2 -217 l3 -205 20 0 20 0 3 73 c3 72 9
84 31 58 33 -39 128 -23 169 28 46 59 37 193 -18 248 l-28 28 -50 0 c-34 0
-57 -6 -75 -20 l-25 -20 -5 20 c-6 22 -35 27 -43 7z m185 -44 c45 -36 48 -157
5 -204 -26 -29 -87 -26 -112 6 -42 53 -36 167 11 200 29 20 70 19 96 -2z"/>
<path d="M10490 863 c-61 -20 -90 -57 -90 -114 0 -47 56 -99 107 -99 70 0 113
42 113 110 0 51 -21 80 -73 99 -30 12 -34 12 -57 4z m96 -44 c34 -32 33 -92
-2 -124 -50 -46 -142 -28 -165 32 -34 91 94 161 167 92z"/>
<path d="M10470 759 c0 -37 4 -58 10 -54 6 3 10 15 10 26 0 26 16 24 42 -6 28
-32 45 -32 24 -1 -10 15 -12 27 -6 31 16 10 12 52 -6 59 -9 3 -29 6 -45 6
l-29 0 0 -61z m70 27 c0 -16 -27 -29 -41 -20 -19 11 -9 34 16 34 15 0 25 -6
25 -14z"/>
<path d="M8305 679 c-121 -4 -278 -12 -350 -18 -71 -6 -197 -15 -280 -21 -82
-6 -199 -17 -260 -25 -60 -8 -160 -19 -222 -25 -145 -15 -167 -21 -171 -48 -5
-33 17 -36 130 -18 400 63 1229 112 1733 103 546 -10 1143 -51 1506 -103 64
-10 124 -14 133 -11 21 8 21 44 -1 51 -76 21 -420 56 -936 96 -348 26 -843 34
-1282 19z"/>
</g>
</svg>
